REM DIRINDEX 1\2,1\3,1\4,1\6,1\5\7,1\5\8
REM DIRNAME cjc114,folder01,folder02,folder03,folder04,folder05,folder06,folder07
TITLE ""
FILE "DB4500_5th_6C_35.mp3" MP3
  TRACK 01 AUDIO
    TITLE "2:cjc114_4490"
    INDEX 01 00:00:00
  TRACK 02 AUDIO
    TITLE "0:"
    INDEX 01 00:01:09
  TRACK 03 AUDIO
    TITLE "3:cjc114_4491"
    INDEX 01 00:01:22
  TRACK 04 AUDIO
    TITLE "0:"
    INDEX 01 00:02:45
  TRACK 05 AUDIO
    TITLE "4:cjc114_4492"
    INDEX 01 00:02:59
  TRACK 06 AUDIO
    TITLE "0:"
    INDEX 01 00:04:74
  TRACK 07 AUDIO
    TITLE "2:cjc114_4493"
    INDEX 01 00:05:36
  TRACK 08 AUDIO
    TITLE "0:"
    INDEX 01 00:06:51
  TRACK 09 AUDIO
    TITLE "3:cjc114_4494"
    INDEX 01 00:06:65
  TRACK 10 AUDIO
    TITLE "0:"
    INDEX 01 00:08:09
  TRACK 11 AUDIO
    TITLE "4:cjc114_4495"
    INDEX 01 00:08:23
  TRACK 12 AUDIO
    TITLE "0:"
    INDEX 01 00:11:29
  TRACK 13 AUDIO
    TITLE "2:cjc114_4496"
    INDEX 01 00:11:66
  TRACK 14 AUDIO
    TITLE "0:"
    INDEX 01 00:12:65
  TRACK 15 AUDIO
    TITLE "3:cjc114_4497"
    INDEX 01 00:13:06
  TRACK 16 AUDIO
    TITLE "0:"
    INDEX 01 00:14:25
  TRACK 17 AUDIO
    TITLE "4:cjc114_4498"
    INDEX 01 00:14:39
  TRACK 18 AUDIO
    TITLE "0:"
    INDEX 01 00:16:67
  TRACK 19 AUDIO
    TITLE "2:cjc114_4499"
    INDEX 01 00:17:29
  TRACK 20 AUDIO
    TITLE "0:"
    INDEX 01 00:18:37
  TRACK 21 AUDIO
    TITLE "3:cjc114_4500"
    INDEX 01 00:18:50
  TRACK 22 AUDIO
    TITLE "0:"
    INDEX 01 00:19:73
  TRACK 23 AUDIO
    TITLE "4:cjc114_4501"
    INDEX 01 00:20:10
  TRACK 24 AUDIO
    TITLE "0:"
    INDEX 01 00:23:03
  TRACK 25 AUDIO
    TITLE "2:cjc114_4502"
    INDEX 01 00:23:42
  TRACK 26 AUDIO
    TITLE "0:"
    INDEX 01 00:24:51
  TRACK 27 AUDIO
    TITLE "3:cjc114_4503"
    INDEX 01 00:24:65
  TRACK 28 AUDIO
    TITLE "0:"
    INDEX 01 00:26:13
  TRACK 29 AUDIO
    TITLE "4:cjc114_4504"
    INDEX 01 00:26:26
  TRACK 30 AUDIO
    TITLE "0:"
    INDEX 01 00:29:27
  TRACK 31 AUDIO
    TITLE "2:cjc114_4505"
    INDEX 01 00:29:64
  TRACK 32 AUDIO
    TITLE "0:"
    INDEX 01 00:31:06
  TRACK 33 AUDIO
    TITLE "3:cjc114_4506"
    INDEX 01 00:31:20
  TRACK 34 AUDIO
    TITLE "0:"
    INDEX 01 00:32:33
  TRACK 35 AUDIO
    TITLE "4:cjc114_4507"
    INDEX 01 00:32:48
  TRACK 36 AUDIO
    TITLE "0:"
    INDEX 01 00:36:17
  TRACK 37 AUDIO
    TITLE "2:cjc114_4508"
    INDEX 01 00:36:54
  TRACK 38 AUDIO
    TITLE "0:"
    INDEX 01 00:37:57
  TRACK 39 AUDIO
    TITLE "3:cjc114_4509"
    INDEX 01 00:37:73
  TRACK 40 AUDIO
    TITLE "0:"
    INDEX 01 00:39:29
  TRACK 41 AUDIO
    TITLE "4:cjc114_4510"
    INDEX 01 00:39:43
  TRACK 42 AUDIO
    TITLE "0:"
    INDEX 01 00:41:55
  TRACK 43 AUDIO
    TITLE "2:cjc114_4511"
    INDEX 01 00:42:19
  TRACK 44 AUDIO
    TITLE "0:"
    INDEX 01 00:43:19
  TRACK 45 AUDIO
    TITLE "3:cjc114_4512"
    INDEX 01 00:43:33
  TRACK 46 AUDIO
    TITLE "0:"
    INDEX 01 00:44:34
  TRACK 47 AUDIO
    TITLE "4:cjc114_4513"
    INDEX 01 00:44:48
  TRACK 48 AUDIO
    TITLE "0:"
    INDEX 01 00:47:48
  TRACK 49 AUDIO
    TITLE "2:cjc114_4514"
    INDEX 01 00:48:10
  TRACK 50 AUDIO
    TITLE "0:"
    INDEX 01 00:49:20
  TRACK 51 AUDIO
    TITLE "3:cjc114_4515"
    INDEX 01 00:49:43
  TRACK 52 AUDIO
    TITLE "0:"
    INDEX 01 00:50:66
  TRACK 53 AUDIO
    TITLE "4:cjc114_4516"
    INDEX 01 00:51:15
  TRACK 54 AUDIO
    TITLE "0:"
    INDEX 01 00:53:29
  TRACK 55 AUDIO
    TITLE "2:cjc114_4517"
    INDEX 01 00:54:01
  TRACK 56 AUDIO
    TITLE "0:"
    INDEX 01 00:55:24
  TRACK 57 AUDIO
    TITLE "3:cjc114_4518"
    INDEX 01 00:55:40
  TRACK 58 AUDIO
    TITLE "0:"
    INDEX 01 00:57:09
  TRACK 59 AUDIO
    TITLE "4:cjc114_4519"
    INDEX 01 00:57:29
  TRACK 60 AUDIO
    TITLE "0:"
    INDEX 01 01:00:41
  TRACK 61 AUDIO
    TITLE "2:cjc114_4520"
    INDEX 01 01:01:03
  TRACK 62 AUDIO
    TITLE "0:"
    INDEX 01 01:02:16
  TRACK 63 AUDIO
    TITLE "3:cjc114_4521"
    INDEX 01 01:02:28
  TRACK 64 AUDIO
    TITLE "0:"
    INDEX 01 01:03:55
  TRACK 65 AUDIO
    TITLE "4:cjc114_4522"
    INDEX 01 01:04:07
  TRACK 66 AUDIO
    TITLE "0:"
    INDEX 01 01:06:42
  TRACK 67 AUDIO
    TITLE "2:cjc114_4523"
    INDEX 01 01:07:06
  TRACK 68 AUDIO
    TITLE "0:"
    INDEX 01 01:08:11
  TRACK 69 AUDIO
    TITLE "3:cjc114_4524"
    INDEX 01 01:08:25
  TRACK 70 AUDIO
    TITLE "0:"
    INDEX 01 01:09:38
  TRACK 71 AUDIO
    TITLE "4:cjc114_4525"
    INDEX 01 01:09:50
  TRACK 72 AUDIO
    TITLE "0:"
    INDEX 01 01:13:45
  TRACK 73 AUDIO
    TITLE "2:cjc114_4526"
    INDEX 01 01:14:19
  TRACK 74 AUDIO
    TITLE "0:"
    INDEX 01 01:15:13
  TRACK 75 AUDIO
    TITLE "3:cjc114_4527"
    INDEX 01 01:15:25
  TRACK 76 AUDIO
    TITLE "0:"
    INDEX 01 01:17:16
  TRACK 77 AUDIO
    TITLE "4:cjc114_4528"
    INDEX 01 01:17:30
  TRACK 78 AUDIO
    TITLE "0:"
    INDEX 01 01:20:06
  TRACK 79 AUDIO
    TITLE "2:cjc114_4529"
    INDEX 01 01:20:44
  TRACK 80 AUDIO
    TITLE "0:"
    INDEX 01 01:21:51
  TRACK 81 AUDIO
    TITLE "3:cjc114_4530"
    INDEX 01 01:21:65
  TRACK 82 AUDIO
    TITLE "0:"
    INDEX 01 01:23:24
  TRACK 83 AUDIO
    TITLE "4:cjc114_4531"
    INDEX 01 01:23:38
  TRACK 84 AUDIO
    TITLE "0:"
    INDEX 01 01:27:10
